inDegrees=no
num_controls=7
num_derivatives=13
num_iterations=44
num_multipliers=7
num_parameters=0
num_slacks=7
num_states=26
objective=0.472001
objective_accelerations=0.056231
objective_balance=0.000636
objective_effort=0.015335
objective_height=0.390997
objective_ligament=0.008801
solver_duration=596.668605
status=Solve_Succeeded
success=true
DataType=double
version=3
OpenSimVersion=4.5
endheader
time	/jointset/ground_pelvis/pelvis_tilt/value	/jointset/ground_pelvis/pelvis_tx/value	/jointset/ground_pelvis/pelvis_ty/value	/jointset/hip_l/hip_flexion_l/value	/jointset/hip_l/hip_adduction_l/value	/jointset/hip_l/hip_rotation_l/value	/jointset/back/lumbar_extension/value	/jointset/patellofemoral_l/patellar_flexion_l/value	/jointset/knee_l/knee_flexion_l/value	/jointset/knee_l/knee_adduction_l/value	/jointset/knee_l/knee_rotation_l/value	/jointset/ankle_l/ankle_angle_l/value	/jointset/subtalar_l/subtalar_angle_l/value	/jointset/ground_pelvis/pelvis_tilt/speed	/jointset/ground_pelvis/pelvis_tx/speed	/jointset/ground_pelvis/pelvis_ty/speed	/jointset/hip_l/hip_flexion_l/speed	/jointset/hip_l/hip_adduction_l/speed	/jointset/hip_l/hip_rotation_l/speed	/jointset/back/lumbar_extension/speed	/jointset/patellofemoral_l/patellar_flexion_l/speed	/jointset/knee_l/knee_flexion_l/speed	/jointset/knee_l/knee_adduction_l/speed	/jointset/knee_l/knee_rotation_l/speed	/jointset/ankle_l/ankle_angle_l/speed	/jointset/subtalar_l/subtalar_angle_l/speed	/forceset/tau_hip_flexion_l	/forceset/tau_hip_adduction_l	/forceset/tau_hip_rotation_l	/forceset/tau_knee_flexion_l	/forceset/tau_ankle_angle_l	/forceset/tau_subtalar_angle_l	/forceset/tau_lumbar_extension	lambda_cid13_p0	lambda_cid13_p1	lambda_cid13_p2	lambda_cid13_p3	lambda_cid13_p4	lambda_cid13_p5	lambda_cid14_p0	/jointset/ground_pelvis/pelvis_tilt/accel	/jointset/ground_pelvis/pelvis_tx/accel	/jointset/ground_pelvis/pelvis_ty/accel	/jointset/hip_l/hip_flexion_l/accel	/jointset/hip_l/hip_adduction_l/accel	/jointset/hip_l/hip_rotation_l/accel	/jointset/back/lumbar_extension/accel	/jointset/patellofemoral_l/patellar_flexion_l/accel	/jointset/knee_l/knee_flexion_l/accel	/jointset/knee_l/knee_adduction_l/accel	/jointset/knee_l/knee_rotation_l/accel	/jointset/ankle_l/ankle_angle_l/accel	/jointset/subtalar_l/subtalar_angle_l/accel	gamma_cid13_p0	gamma_cid13_p1	gamma_cid13_p2	gamma_cid13_p3	gamma_cid13_p4	gamma_cid13_p5	gamma_cid14_p0
1	-0.3736349876896738	0.01022141975702369	0.6426102805959073	1.498403410540169	-0.3531268614413076	0.09868673783951155	-0.4362634620176485	1.38925767490419	1.38925767490421	0.04471500555323699	-0.1742990515431372	0.4294848450190608	0.2359121230255666	-0.1398006943323223	0.003518606826543543	0.03072643047418011	0.0296279094081633	0.002969884877349597	-0.06214170081800423	-0.001950613277917506	-0.152132962018126	-0.152132962018119	0.005863605939848266	-0.001151833276378208	-0.05402921201497791	-0.02633333891840278	-0.1998800627461258	0.08934600591242926	-0.009694047585105676	-0.2871384046380387	-0.01223657766046929	-0.01202234721304068	0.1855001217706687	-38.32857046311157	21.88415963556276	-15.137292168822	4.120772482165247	-529.7198135767893	-31.64366241576215	-0.02473443166974919	1.324124537243998	0.2332537257950904	1.700412755112658	-5.756154907922974	-0.09424865796779118	-1.500919990705422	-0.01140553880491182	-5.107511797542449	-5.107511797542479	-0.5900089337059016	-0.006614068030526616	-1.101431492270916	-0.7806763143552448	-3.240346314896666e-09	-8.511895381889888e-08	-1.750695468137402e-08	1.611419444365746e-10	-4.86389499093509e-09	-8.341052362425952e-08	-4.81984114933725e-10
1.01	-0.3749675358688577	0.01026834743378508	0.6430023419822168	1.498412939658865	-0.3531014336994087	0.0979917423778069	-0.4362820969141458	1.387481439224584	1.387481439224439	0.04474352428862634	-0.1743096316887234	0.4288896588668225	0.2356106029248015	-0.1267077948954817	0.005879597913971059	0.04767651423445275	-0.02771696609853311	0.002119489668691289	-0.07683239444069549	-0.001719552775516129	-0.2031015307329639	-0.2031015307329644	-0.000171527997485188	-0.0009563291110608691	-0.06499897710067201	-0.03395343546556994	-0.2005508724899758	0.08932132540034647	-0.009750789937513679	-0.2859899370604033	-0.01275679029541696	-0.01194946382495617	0.1859541442414279	-38.45252649640522	21.81012296624617	-15.05228575465103	4.002719006915433	-529.6305550215893	-31.57887671115409	-0.0247505375627441	1.302045429500537	0.2394213410569248	1.690904655521805	-5.722885258873336	-0.07985403964631878	-1.449401925962286	0.04888383021257262	-5.089632804219087	-5.089632804220185	-0.6120276526625662	0.03380085696320582	-1.093398560072425	-0.7500682843212119	-3.278983436617209e-09	-1.131449831936155e-07	-2.668233150097281e-08	-4.29183244746597e-09	-8.206006493563682e-09	-1.094534426975587e-07	-6.423442785997986e-10
1.02	-0.3761691204971793	0.01033926492958762	0.6435636238999378	1.497849173745091	-0.3530843937270671	0.09715058840431434	-0.4362967168083282	1.385195897178678	1.3851958971784	0.04471133927879225	-0.1743180231530681	0.428185045155037	0.2352334034666813	-0.1136079841547439	0.00831657063477333	0.06457053675631191	-0.08503109707843066	0.00129233096675384	-0.09137340317983403	-0.001147612855078735	-0.2539942352784032	-0.2539942352784096	-0.006277143091434113	-0.0007140970197271991	-0.07591472392053641	-0.04146921038969015	-0.2012216822339812	0.08929664488835114	-0.009807532290166728	-0.2848414694827577	-0.01327700293030759	-0.01187658043669144	0.1864081667120275	-38.58032212196562	21.73337795546174	-14.96298592491045	3.882439128194093	-529.6632002040027	-31.52420825304808	-0.02476963404839858	1.325506798023465	0.2484500524700274	1.689200507429959	-5.750006002563175	-0.08960135662363922	-1.470983013994979	0.05677034480284739	-5.092338963662761	-5.092338963662455	-0.6041051650289377	0.002731517172644486	-1.090627839105013	-0.7598119897459158	-3.704485750739442e-09	-1.429675551762836e-07	-3.847080356868639e-08	-8.191319052700093e-09	-1.232476327572889e-08	-1.373841801631475e-07	-4.943373724929956e-10
1.03	-0.3772395563326481	0.01043496774787336	0.6442935369187598	1.496712330312841	-0.3530754910391282	0.09616486481184694	-0.4363039084409795	1.382401804375654	1.382401804375422	0.04461768773807954	-0.1743237216877485	0.4273715191613979	0.2347816013933594	-0.1004660996733781	0.01084036921118048	0.08139991752394043	-0.1423421655575897	0.0004933118441387203	-0.1057439706060403	-0.0002335257343969975	-0.3048124275272075	-0.3048124275272094	-0.01246505437726618	-0.0004170588988907833	-0.08678378040584594	-0.04887122159074169	-0.2018054511839842	0.08929983381743822	-0.009850517485466337	-0.2834742942660244	-0.01380941917821297	-0.01179664152600953	0.1868249421945028	-38.6956661481037	21.64171410694173	-14.86025724095057	3.743753052473171	-529.5094302068054	-31.44899413728726	-0.0247943891105139	1.310492442166196	0.2567987479450671	1.677981123495855	-5.722343215418543	-0.07427391478769128	-1.416002595637374	0.1173060858373144	-5.074774617921669	-5.074774617921253	-0.6279353299858151	0.04445277090599617	-1.084049017208562	-0.7273647086483176	-4.133935668865776e-09	-1.728084592263799e-07	-5.028593987362565e-08	-1.208515782337637e-08	-1.64514450097261e-08	-1.653341810817189e-07	-3.431838636334064e-10
1.04	-0.3781781806895327	0.01055639934946573	0.6451913785976724	1.495002239006783	-0.3530744228873645	0.09503625374740353	-0.4363002435643231	1.379099886597654	1.379099886597509	0.04446179684060535	-0.1743261972789932	0.426449501710095	0.2342563854033551	-0.08724568843305572	0.01346232729609844	0.09815626877431524	-0.1996806718297922	-0.000274576266785768	-0.1199508975804019	0.001023688991774416	-0.3555592302733243	-0.3555592302733228	-0.01872501444811726	-6.950832337542877e-05	-0.09761301544975877	-0.05615199372633605	-0.2023892201342548	0.08930302274660593	-0.009893502680649093	-0.2821071190492643	-0.01434183542604569	-0.01171670261515587	0.1872417176767051	-38.81504313050392	21.54745452694052	-14.75334303002509	3.602130205787536	-529.4785836285096	-31.38475697683501	-0.02482168356128875	1.341212149814778	0.2680819541721957	1.674594603979212	-5.755493561171826	-0.08337515428556407	-1.438254923626179	0.1253958659008228	-5.078061063125299	-5.078061063125166	-0.6185149220326897	0.01283400810827662	-1.082663550825674	-0.7355641766545712	-4.200647438583595e-09	-2.051464967957944e-07	-6.412918282367939e-08	-1.689843590913564e-08	-1.997168541802712e-08	-1.954543696448511e-07	-1.18535962769882e-10
1.05	-0.3789843641520765	0.01070457285405688	0.6462563423090032	1.492718881899987	-0.3530808738685113	0.09376643938013771	-0.4362818980372055	1.375290907366741	1.375290907366636	0.04424292962551653	-0.1743249621306711	0.4254193498809352	0.2336589673736191	-0.07399345376519469	0.01619202974309131	0.1148167531039236	-0.2569703156125846	-0.001010469731883997	-0.1339863982881379	0.002742200807747857	-0.4062202636416744	-0.4062202636416741	-0.02505671631327994	0.0003206306957337497	-0.1084145517506968	-0.06331190981589732	-0.2029013675608745	0.08933273339713052	-0.009924063305400924	-0.2804770507535492	-0.0149150879209748	-0.01162984981383625	0.1876438511795901	-38.92962978334249	21.43813164293008	-14.63120943098056	3.443888490409887	-529.2366672718963	-31.29269638203713	-0.02485432587087486	1.31686222535082	0.278358411179478	1.658812559293501	-5.712634382841248	-0.06790505696657327	-1.38237493847082	0.2095964966991667	-5.057671657592222	-5.057671657592644	-0.641765476097902	0.05268883342376863	-1.078490490083511	-0.7032026796688965	-4.25602364116365e-09	-2.375625697876877e-07	-7.803580410639296e-08	-2.174044647349124e-08	-2.347297453490012e-08	-2.256423765718758e-07	1.084086378437648e-10
1.06	-0.3796580986479426	0.01088063218735991	0.6474873183059995	1.4898632414361	-0.3530945255071873	0.09235703454699531	-0.4362434638605908	1.370975808365365	1.370975808365343	0.04396049186041342	-0.1743197085952738	0.4242812643246829	0.2329905507120753	-0.06075589509414842	0.01903949303847167	0.1313587259073083	-0.3141373432357099	-0.001714707770782613	-0.1478689907608153	0.005041418913891618	-0.4567831843661306	-0.4567831843661324	-0.03143912447204111	0.0007341690993091721	-0.1191997608658733	-0.07035172008793747	-0.2034135149878592	0.08936244404770168	-0.009954623929707977	-0.2788469824577927	-0.01548834041582294	-0.01154299701240174	0.1880459846821041	-39.04848776331658	21.32633003264041	-14.50499492869392	3.281920082435369	-529.1191153914361	-31.21273369243012	-0.02488890725312709	1.338276950451809	0.291634123849718	1.650892298734497	-5.730970329238361	-0.07704406904571948	-1.407673276614606	0.2415371239345783	-5.058438534346567	-5.058438534346579	-0.6286561807523446	0.01751388500132976	-1.079398113673346	-0.711543013150456	-4.030257504228754e-09	-2.709323409980607e-07	-9.300398330599671e-08	-2.739800017437572e-08	-2.608700587974469e-08	-2.549107284362992e-07	1.381717132242855e-10
1.07	-0.380199673487941	0.01108579650351099	0.6488830149466649	1.486436851980309	-0.3531150782888435	0.09080955585692756	-0.4361787186391329	1.366155730543469	1.36615573054339	0.04361403190426601	-0.1743102784392247	0.4230354245767508	0.2322523350817406	-0.04757700966774359	0.02201727085706557	0.1477501466719752	-0.3710885629428868	-0.00239253911348842	-0.1616072472524545	0.008047860685379746	-0.5072003187531332	-0.5072003187531363	-0.03785197988403743	0.001146275817282588	-0.1299635141337999	-0.07727168189852521	-0.2038331140819396	0.0894019509553511	-0.009974193492179859	-0.2769081901209223	-0.0160914588822435	-0.01144588475673741	0.1884159078563025	-39.15404624448054	21.19528441835604	-14.36148061146045	3.088705366082204	-528.7214567465575	-31.10071003986205	-0.02492686526951709	1.305004167708965	0.3044280103329436	1.628692865190936	-5.669399927626062	-0.06263035801780106	-1.3539941110685	0.3512329985020421	-5.028541733736995	-5.028541733737431	-0.6474988610577637	0.05218272359660872	-1.074177361070433	-0.679202579392047	-3.789536987532423e-09	-3.043528408370763e-07	-1.080286283522436e-07	-3.309893382933089e-08	-2.865384266224732e-08	-2.841301624782439e-07	1.574464096030428e-10
